# xmcd
#
# Track frame offsets:
#	150
#	15436
#	28751
#	44922
#	59018
#	84224
#	98447
#	112185
#	127525
#	143336
#	155872
#	168895
#	182932
#	197495
#	212386
#
# Disc length: 3037 seconds
#
# Revision: 0
# Processed by: cddbd v1.5.2PL0 Copyright (c) Steve Scherf et al.
# Submitted via: EasyCDDAExtractor 16.0.6.1
#
DISCID=bf0bdb0f
DTITLE=Συλλογικός δίσκος - Τα καλύτερα ελληνικά τραγούδια 1962
DYEAR=1900
DGENRE=Λαϊκή
TTITLE0=Μπιθικώτσης Γρηγόρης - Μέσ' τα μαύρα σου κυρά μου τα μαλλιά[ΜΘεοδωράκη
TTITLE0=ΑΔασκαλόπουλου]
TTITLE1=Φυτούση Ζωή - Για χατήρι σου [Σ. Ξαρχάκου-Β. Γκούφα]
TTITLE2=Μερκούρη Μελίνα - Αστέρι μου φεγγάρι μου (Φαίδρα) [Μ. Θεοδωράκη-Γ. Θεο
TTITLE2=δωράκη]
TTITLE3=Λίντα Μαίρη - Αθήνα κόρη τ' ουρανού [Α. Χατζηαποστόλου-Τ. Σωτήρχου]
TTITLE4=Μπιθικώτσης Γρηγόρης - Καημός [Μ. Θεοδωράκη-Δ. Χριστοδούλου]
TTITLE5=Φυτούση Ζωή - Τα δάκρυά μου είναι καυτά [Σ. Ξαρχάκου-Β. Γκούφα]
TTITLE6=Μπιθικώτσης Γρηγόρης - Απρίλης [Μ. Θεοδωράκη]
TTITLE7=Μαρινέλλα - Όμορφη πόλη [Μ. Θεοδωράκη-Γ. Θεοδωράκη]
TTITLE8=Καζαντζίδης Στέλιος - Μιά παλιά ιστορία [Κ. Βίρβου-Σ. Καζαντζίδη]
TTITLE9=Περπινιάδης Βαγγέλης - Άμα θες να κλάψεις κλάψε [Α. Καλδάρα-Γ. Σαμολαδ
TTITLE9=ά]
TTITLE10=Πάνου Πόλυ - Τα λιμάνια [Β. Τσιτσάνη]
TTITLE11=Λίντα Μαίρη - Πολλές φορές (Πού θα πας) [Μ. Χιώτη-Χ. Κολοκοτρώνη]
TTITLE12=Αναγνωστάκης Πέτρος - Πληροφορίες κακές [Μ. Μπακάλη]
TTITLE13=Πάνου Πόλυ-Καραμπεσίνης Γιάννης - Εσένα δεν σού άξιζε αγάπη [Γ. Καραμ
TTITLE13=πεσίνη]
TTITLE14=Καζαντζίδης Στέλιος - Ό,τι αγαπάω εγώ πεθαίνει [Α. Καλδάρα-Γ. Σαμολαδ
TTITLE14=ά]
EXTD=
EXTT0=
EXTT1=
EXTT2=
EXTT3=
EXTT4=
EXTT5=
EXTT6=
EXTT7=
EXTT8=
EXTT9=
EXTT10=
EXTT11=
EXTT12=
EXTT13=
EXTT14=
PLAYORDER=
